Coordinates
version=1
nRows=16
nColumns=40
inDegrees=yes

Units are S.I. units (second, meters, Newtons, ...)
Angles are in degrees.

endheader
time	pelvis_tilt	pelvis_list	pelvis_rotation	pelvis_tx	pelvis_ty	pelvis_tz	hip_flexion_r	hip_adduction_r	hip_rotation_r	knee_angle_r	knee_angle_r_beta	ankle_angle_r	subtalar_angle_r	mtp_angle_r	hip_flexion_l	hip_adduction_l	hip_rotation_l	knee_angle_l	knee_angle_l_beta	ankle_angle_l	subtalar_angle_l	mtp_angle_l	lumbar_extension	lumbar_bending	lumbar_rotation	arm_flex_r	arm_add_r	arm_rot_r	elbow_flex_r	pro_sup_r	wrist_flex_r	wrist_dev_r	arm_flex_l	arm_add_l	arm_rot_l	elbow_flex_l	pro_sup_l	wrist_flex_l	wrist_dev_l
      0.96750000	     -4.30411919	     -4.04577630	     -9.50633338	      0.92081853	      0.92656970	      0.51813189	     17.67519051	      3.42925192	     -7.25333371	     21.39858822	     21.39858822	      9.61147325	     -0.08735053	     -3.83467414	      2.51531732	     -8.17526263	    -13.36381833	     30.65414751	     30.65414751	     17.74623754	    -13.66802787	      0.07194268	     -9.29332659	      8.48140813	      0.47885123	     -5.15232942	    -14.06232719	    -19.23613863	     30.77355306	     46.41377992	      0.00000000	      0.00000000	     19.44192228	    -15.42923965	    -17.16419760	     77.51688941	     48.10175506	      0.00000000	      0.00000000
      0.98714286	     -4.26966549	     -4.14170021	     -8.95478826	      0.92150619	      0.92743124	      0.52203616	     16.76927435	      3.71600111	     -7.60517514	     20.72935467	     20.72935467	      9.82828220	     -0.19767565	     -3.64482722	      3.98685908	     -9.10845350	    -12.61653778	     34.01932505	     34.01932505	     16.08622644	    -14.31092064	     -1.40072470	     -9.12658230	      8.54980533	      0.26725941	     -4.39501921	    -14.37402490	    -19.18675289	     30.91028208	     46.41103609	      0.00000000	      0.00000000	     18.26806139	    -14.98342709	    -16.51416692	     76.22816930	     48.02688330	      0.00000000	      0.00000000
      1.00678571	     -4.08147105	     -4.24401813	     -8.45577325	      0.92206487	      0.92827927	      0.52597797	     15.79271167	      4.04764816	     -7.69324088	     20.20720402	     20.20720402	     10.07020422	     -0.61993230	     -3.42486026	      5.15266928	    -10.01439270	    -11.95839395	     36.85545337	     36.85545337	     11.70371466	    -16.23501326	     -8.56387402	     -9.07957474	      8.49672702	      0.67594546	     -3.59723857	    -14.77959047	    -18.66809463	     30.06630534	     46.41426245	      0.00000000	      0.00000000	     17.94205483	    -14.60526601	    -14.35367867	     73.12163598	     47.82505833	      0.00000000	      0.00000000
      1.02642857	     -3.88626885	     -4.34189525	     -7.85801042	      0.92232757	      0.92887042	      0.52956760	     14.91105084	      4.29184183	     -8.07817569	     19.83669317	     19.83669317	     10.32565729	     -0.76022925	     -3.38949263	      6.87467531	    -10.83700586	    -10.76520997	     40.72892053	     40.72892053	      9.87878987	    -16.98314701	     -8.88373133	     -9.16459517	      8.43859492	      0.46382724	     -2.70793352	    -15.04176757	    -18.69079753	     30.45649891	     46.40692844	      0.00000000	      0.00000000	     16.61086084	    -14.02221757	    -13.89198532	     71.93456127	     47.76389387	      0.00000000	      0.00000000
      1.04607143	     -3.76469758	     -4.42533526	     -7.21780099	      0.92231372	      0.92906244	      0.53300273	     14.22721567	      4.54931166	     -8.35409082	     19.62910877	     19.62910877	     10.60625023	     -1.20570219	     -3.34869779	      8.84437231	    -11.56887160	     -9.38628520	     44.68978338	     44.68978338	      7.92501687	    -17.66419823	     -8.88630650	     -9.11624284	      8.34953580	      0.12587446	     -1.65701238	    -15.26009597	    -18.61597149	     30.67326026	     46.40124912	      0.00000000	      0.00000000	     15.32888206	    -13.59410641	    -13.15962520	     69.80173079	     47.66894585	      0.00000000	      0.00000000
      1.06571429	     -3.46865261	     -4.47910113	     -6.55966748	      0.92208837	      0.92914927	      0.53619334	     13.57587832	      4.76323304	     -8.42767471	     19.79518157	     19.79518157	     11.00818969	     -2.07164751	     -3.24701597	     10.75110844	    -12.07190971	     -7.81942537	     48.69669786	     48.69669786	      6.55802228	    -18.09593503	     -6.96573581	     -9.22260093	      8.23187276	      0.17230690	     -0.41768126	    -15.54497848	    -18.24419590	     30.15187797	     46.40759097	      0.00000000	      0.00000000	     15.00553760	    -13.12263052	    -11.53034862	     65.52141773	     47.48558813	      0.00000000	      0.00000000
      1.08535714	     -3.23025290	     -4.55804076	     -5.85734144	      0.92162331	      0.92881358	      0.53910931	     13.09785416	      4.95567823	     -8.70704645	     20.14172554	     20.14172554	     11.51508039	     -2.72893676	     -3.06573727	     12.85083472	    -12.42687906	     -6.08149343	     52.70357566	     52.70357566	      5.87299497	    -18.30775882	     -3.22612424	     -9.30641820	      8.12098603	      0.30519928	      0.61151249	    -15.82907872	    -18.06945119	     29.99682236	     46.41012695	      0.00000000	      0.00000000	     14.49787692	    -12.48230015	    -10.00976553	     61.67242710	     47.31928065	      0.00000000	      0.00000000
      1.10500000	     -2.97001433	     -4.62763899	     -5.14472598	      0.92097936	      0.92816722	      0.54180200	     12.74287462	      5.11767292	     -8.96703644	     20.73772320	     20.73772320	     12.18829282	     -3.42115469	     -2.73609867	     14.93141473	    -12.60096782	     -4.34007591	     56.46974957	     56.46974957	      5.79594264	    -18.46403340	      1.78482032	     -9.43449238	      7.99171890	      0.51562435	      1.62981335	    -16.09033253	    -18.02795797	     30.02416579	     46.41340016	      0.00000000	      0.00000000	     14.05286158	    -11.74460802	     -8.54955334	     57.55530391	     47.15989576	      0.00000000	      0.00000000
      1.12464286	     -2.65719962	     -4.69324000	     -4.41708695	      0.92019350	      0.92722789	      0.54435230	     12.48271628	      5.26650425	     -9.16988513	     21.59416656	     21.59416656	     12.93717528	     -4.31368623	     -2.36167852	     16.84638915	    -12.71358542	     -2.80488062	     59.76067342	     59.76067342	      5.88746994	    -18.70695123	      6.42025319	     -9.62356142	      7.84281876	      0.49541110	      2.88578776	    -16.25371019	    -18.05148656	     30.26120553	     46.41332097	      0.00000000	      0.00000000	     13.46519193	    -11.11320254	     -7.31616314	     53.25139723	     47.01585347	      0.00000000	      0.00000000
      1.14428571	     -2.31434763	     -4.78045327	     -3.69706770	      0.91924566	      0.92598805	      0.54678253	     12.31922708	      5.42868604	     -9.36977682	     22.67037695	     22.67037695	     13.79002899	     -5.24521792	     -1.92606331	     18.61392959	    -12.85786739	     -1.54214881	     62.56038428	     62.56038428	      6.39015142	    -18.91452976	     10.91864443	     -9.86539453	      7.70117482	      0.50866539	      4.21062207	    -16.36397596	    -18.13418780	     30.64385429	     46.41028656	      0.00000000	      0.00000000	     12.88732969	    -10.47052365	     -6.12459377	     48.77861346	     46.87411812	      0.00000000	      0.00000000
      1.16392857	     -1.97810593	     -4.84781339	     -2.98934898	      0.91818149	      0.92441776	      0.54913929	     12.22696255	      5.59978955	     -9.45947696	     23.82006601	     23.82006601	     14.55957376	     -6.40055890	     -1.81137992	     20.17920848	    -13.10850458	     -0.69742024	     64.67133045	     64.67133045	      6.64671239	    -19.19088913	     13.02377445	    -10.11634585	      7.52179706	     -0.01593697	      5.93420533	    -16.25791288	    -18.17667227	     31.45482659	     46.39041961	      0.00000000	      0.00000000	     11.53814251	    -10.13076010	     -5.39817441	     45.44018581	     46.76654323	      0.00000000	      0.00000000
      1.18357143	     -1.60935227	     -5.00168453	     -2.28767170	      0.91693517	      0.92280509	      0.55131388	     12.11654839	      5.84973678	     -9.61751983	     24.99196511	     24.99196511	     15.47125208	     -7.36566948	     -1.03371964	     21.72159249	    -13.40815327	      0.05424768	     66.40074550	     66.40074550	      8.33651913	    -19.33336258	     17.94021845	    -10.41975257	      7.44159504	      0.42795741	      7.28953746	    -16.45878259	    -18.19840799	     31.77158626	     46.38474697	      0.00000000	      0.00000000	     11.43110091	     -9.31924730	     -4.12772890	     40.01503316	     46.60682282	      0.00000000	      0.00000000
      1.20321429	     -1.27310634	     -5.11536576	     -1.60242078	      0.91554745	      0.92091879	      0.55340637	     12.10827749	      6.05751081	     -9.77735936	     26.26440631	     26.26440631	     16.43660090	     -8.30543138	     -0.33679602	     23.10973332	    -13.83379262	      0.38035147	     67.39611626	     67.39611626	      9.77363274	    -19.45558351	     20.50572942	    -10.71132811	      7.30040270	      0.54406588	      8.75972396	    -16.43327061	    -18.45501608	     32.88625739	     46.35738110	      0.00000000	      0.00000000	     10.66867799	     -8.78600768	     -3.01764016	     35.87019705	     46.46026491	      0.00000000	      0.00000000
      1.22285714	     -0.93072692	     -5.26749147	     -0.90360765	      0.91402498	      0.91902498	      0.55532210	     12.02486777	      6.34786308	     -9.86948675	     27.35283954	     27.35283954	     17.20581800	     -9.41450116	      0.11432514	     24.38334215	    -14.34827740	      0.50588033	     67.74353882	     67.74353882	     11.26974786	    -19.54518188	     22.17405412	    -11.04582677	      7.20885235	      0.43883987	     10.58745215	    -16.33409456	    -18.51891645	     34.00054500	     46.32158216	      0.00000000	      0.00000000	      9.49916232	     -8.41318728	     -2.13753017	     32.49927491	     46.32875401	      0.00000000	      0.00000000
      1.24250000	     -0.66632699	     -5.36382752	     -0.21971738	      0.91226139	      0.91704782	      0.55695636	     12.02597953	      6.55160924	    -10.03114781	     28.40133463	     28.40133463	     17.86679059	    -10.38678670	      0.24150928	     25.62666440	    -14.81017822	      0.42286391	     67.44290333	     67.44290333	     12.68636194	    -19.60263696	     22.92702883	    -11.33912584	      7.06918688	      0.29079591	     12.57993103	    -16.17979159	    -18.52774041	     35.27307285	     46.28026916	      0.00000000	      0.00000000	      7.93109820	     -8.14520010	     -1.57439947	     30.21648265	     46.22675229	      0.00000000	      0.00000000
      1.26214286	     -0.46252292	     -5.38857804	      0.45028568	      0.91037702	      0.91519545	      0.55827854	     12.02608651	      6.67439326	    -10.18236193	     29.30426655	     29.30426655	     18.47043819	    -11.32144723	      0.34325258	     26.79385829	    -15.10822047	      0.23545544	     66.51270053	     66.51270053	     14.12582355	    -19.63476863	     23.41508632	    -11.56135880	      6.86413588	      0.18251399	     14.63112143	    -16.04941446	    -18.48976225	     36.61431743	     46.23496564	      0.00000000	      0.00000000	      6.32517778	     -7.90004394	     -1.07233396	     28.23216770	     46.12752100	      0.00000000	      0.00000000
